<svg xmlns="http://www.w3.org/2000/svg" viewBox="0 0 1920 1080" preserveAspectRatio="xMidYMid slice" width="1920" height="1080"><defs><linearGradient id="sky" x1="0" y1="0" x2="0" y2="1"><stop offset="0" stop-color="#0d1250"/><stop offset="0.5" stop-color="#3d2a8a"/><stop offset="0.85" stop-color="#8a4aa8"/><stop offset="1" stop-color="#d27aa0"/></linearGradient><radialGradient id="sunglow"><stop offset="0" stop-color="#d090e0" stop-opacity="0.85"/><stop offset="1" stop-color="#d090e0" stop-opacity="0"/></radialGradient><radialGradient id="moonglow"><stop offset="0" stop-color="#cfd8ff" stop-opacity="0.45"/><stop offset="1" stop-color="#cfd8ff" stop-opacity="0"/></radialGradient><filter id="soft" x="-50%" y="-50%" width="200%" height="200%"><feGaussianBlur stdDeviation="6"/></filter></defs><rect width="1920" height="1080" fill="url(#sky)"/><circle cx="435" cy="462" r="1" fill="#fff" opacity="0.44"/><circle cx="84" cy="66" r="2.4" fill="#fff" opacity="0.45"/><circle cx="1232" cy="220" r="1.8" fill="#fff" opacity="0.54"/><circle cx="1100" cy="431" r="1.8" fill="#fff" opacity="0.39"/><circle cx="450" cy="10" r="1.4" fill="#fff" opacity="0.61"/><circle cx="911" cy="437" r="1" fill="#fff" opacity="0.68"/><circle cx="187" cy="391" r="1.8" fill="#fff" opacity="0.66"/><circle cx="724" cy="317" r="1.4" fill="#fff" opacity="0.46"/><circle cx="165" cy="434" r="2.4" fill="#fff" opacity="0.80"/><circle cx="1117" cy="68" r="1" fill="#fff" opacity="0.62"/><circle cx="72" cy="337" r="1" fill="#fff" opacity="0.82"/><circle cx="1112" cy="350" r="1.8" fill="#fff" opacity="0.49"/><circle cx="685" cy="421" r="1" fill="#fff" opacity="0.42"/><circle cx="1155" cy="255" r="1.4" fill="#fff" opacity="0.70"/><circle cx="1824" cy="405" r="2.4" fill="#fff" opacity="0.66"/><circle cx="593" cy="171" r="1.4" fill="#fff" opacity="0.60"/><circle cx="137" cy="434" r="2.4" fill="#fff" opacity="0.81"/><circle cx="1046" cy="165" r="1" fill="#fff" opacity="0.49"/><circle cx="422" cy="16" r="1.4" fill="#fff" opacity="0.53"/><circle cx="1602" cy="428" r="1" fill="#fff" opacity="0.68"/><circle cx="223" cy="448" r="1" fill="#fff" opacity="0.44"/><circle cx="1472" cy="144" r="1" fill="#fff" opacity="0.75"/><circle cx="730" cy="401" r="2.4" fill="#fff" opacity="0.56"/><circle cx="445" cy="197" r="1.8" fill="#fff" opacity="0.55"/><circle cx="154" cy="34" r="1" fill="#fff" opacity="0.36"/><circle cx="1273" cy="367" r="2.4" fill="#fff" opacity="0.52"/><circle cx="1551" cy="242" r="1" fill="#fff" opacity="0.84"/><circle cx="121" cy="8" r="1" fill="#fff" opacity="0.51"/><circle cx="1264" cy="58" r="1.4" fill="#fff" opacity="0.52"/><circle cx="1853" cy="1" r="1.8" fill="#fff" opacity="0.45"/><circle cx="1680" cy="16" r="2.4" fill="#fff" opacity="0.43"/><circle cx="648" cy="207" r="1" fill="#fff" opacity="0.38"/><circle cx="1162" cy="239" r="1.8" fill="#fff" opacity="0.74"/><circle cx="732" cy="52" r="1.8" fill="#fff" opacity="0.67"/><circle cx="1381" cy="247" r="1" fill="#fff" opacity="0.70"/><circle cx="905" cy="189" r="1.4" fill="#fff" opacity="0.57"/><circle cx="98" cy="23" r="1" fill="#fff" opacity="0.40"/><circle cx="1392" cy="340" r="2.4" fill="#fff" opacity="0.80"/><circle cx="1258" cy="398" r="2.4" fill="#fff" opacity="0.39"/><circle cx="1858" cy="363" r="2.4" fill="#fff" opacity="0.76"/><circle cx="1092" cy="241" r="1.4" fill="#fff" opacity="0.61"/><circle cx="1428" cy="311" r="1" fill="#fff" opacity="0.49"/><circle cx="569" cy="38" r="1.4" fill="#fff" opacity="0.81"/><circle cx="1885" cy="107" r="1.4" fill="#fff" opacity="0.38"/><circle cx="805" cy="357" r="1.4" fill="#fff" opacity="0.60"/><circle cx="1200" cy="459" r="1.4" fill="#fff" opacity="0.67"/><circle cx="210" cy="233" r="1.8" fill="#fff" opacity="0.83"/><circle cx="1626" cy="150" r="1.4" fill="#fff" opacity="0.54"/><circle cx="736" cy="441" r="2.4" fill="#fff" opacity="0.82"/><circle cx="1398" cy="394" r="2.4" fill="#fff" opacity="0.64"/><circle cx="1292" cy="94" r="2.4" fill="#fff" opacity="0.60"/><circle cx="157" cy="78" r="1.8" fill="#fff" opacity="0.71"/><circle cx="520" cy="201" r="1" fill="#fff" opacity="0.66"/><circle cx="1584" cy="474" r="1.4" fill="#fff" opacity="0.75"/><circle cx="968" cy="133" r="1.8" fill="#fff" opacity="0.46"/><circle cx="472" cy="119" r="2.4" fill="#fff" opacity="0.72"/><circle cx="480" cy="390" r="2.4" fill="#fff" opacity="0.61"/><circle cx="375" cy="238" r="1" fill="#fff" opacity="0.74"/><circle cx="745" cy="314" r="2.4" fill="#fff" opacity="0.85"/><circle cx="1767" cy="377" r="1" fill="#fff" opacity="0.35"/><circle cx="367" cy="127" r="1" fill="#fff" opacity="0.58"/><circle cx="1668" cy="435" r="2.4" fill="#fff" opacity="0.39"/><circle cx="1166" cy="415" r="1" fill="#fff" opacity="0.50"/><circle cx="74" cy="442" r="1" fill="#fff" opacity="0.67"/><circle cx="703" cy="398" r="1" fill="#fff" opacity="0.71"/><circle cx="1151" cy="153" r="1.4" fill="#fff" opacity="0.72"/><circle cx="1857" cy="32" r="1" fill="#fff" opacity="0.81"/><circle cx="1170" cy="209" r="1" fill="#fff" opacity="0.47"/><circle cx="747" cy="207" r="1" fill="#fff" opacity="0.39"/><circle cx="427" cy="141" r="1" fill="#fff" opacity="0.51"/><circle cx="382" cy="454" r="1" fill="#fff" opacity="0.62"/><circle cx="1413" cy="396" r="2.4" fill="#fff" opacity="0.67"/><circle cx="567" cy="116" r="2.4" fill="#fff" opacity="0.58"/><circle cx="1081" cy="449" r="1" fill="#fff" opacity="0.81"/><circle cx="255" cy="157" r="1.8" fill="#fff" opacity="0.43"/><circle cx="259" cy="211" r="1.8" fill="#fff" opacity="0.64"/><circle cx="1178" cy="199" r="1.8" fill="#fff" opacity="0.63"/><circle cx="1721" cy="443" r="2.4" fill="#fff" opacity="0.84"/><circle cx="940" cy="176" r="2.4" fill="#fff" opacity="0.44"/><circle cx="511" cy="454" r="1" fill="#fff" opacity="0.77"/><circle cx="532" cy="305" r="2.4" fill="#fff" opacity="0.61"/><circle cx="1799" cy="139" r="1" fill="#fff" opacity="0.63"/><circle cx="750" cy="65" r="1.8" fill="#fff" opacity="0.67"/><circle cx="239" cy="189" r="1" fill="#fff" opacity="0.78"/><circle cx="973" cy="142" r="1.8" fill="#fff" opacity="0.70"/><circle cx="1193" cy="69" r="1" fill="#fff" opacity="0.38"/><circle cx="355" cy="278" r="1" fill="#fff" opacity="0.73"/><circle cx="1616" cy="271" r="2.4" fill="#fff" opacity="0.83"/><circle cx="207" cy="480" r="1" fill="#fff" opacity="0.84"/><circle cx="1374" cy="177" r="1.4" fill="#fff" opacity="0.39"/><circle cx="614" cy="49" r="1" fill="#fff" opacity="0.67"/><circle cx="916" cy="277" r="1.4" fill="#fff" opacity="0.72"/><circle cx="825" cy="356" r="1" fill="#fff" opacity="0.71"/><circle cx="1783" cy="318" r="1.4" fill="#fff" opacity="0.37"/><circle cx="1842" cy="245" r="1.8" fill="#fff" opacity="0.53"/><circle cx="1078" cy="145" r="1.4" fill="#fff" opacity="0.74"/><circle cx="1504" cy="356" r="2.4" fill="#fff" opacity="0.69"/><circle cx="872" cy="142" r="1.8" fill="#fff" opacity="0.78"/><circle cx="858" cy="302" r="1.8" fill="#fff" opacity="0.80"/><circle cx="842" cy="65" r="1" fill="#fff" opacity="0.52"/><circle cx="1153" cy="219" r="1.8" fill="#fff" opacity="0.63"/><circle cx="390" cy="251" r="2.4" fill="#fff" opacity="0.43"/><circle cx="281" cy="395" r="1" fill="#fff" opacity="0.62"/><circle cx="1277" cy="149" r="1" fill="#fff" opacity="0.66"/><circle cx="487" cy="423" r="1" fill="#fff" opacity="0.83"/><circle cx="27" cy="213" r="1" fill="#fff" opacity="0.50"/><circle cx="54" cy="3" r="1" fill="#fff" opacity="0.72"/><circle cx="1106" cy="307" r="1" fill="#fff" opacity="0.36"/><circle cx="410" cy="152" r="1" fill="#fff" opacity="0.55"/><circle cx="1750" cy="0" r="1" fill="#fff" opacity="0.60"/><circle cx="389" cy="440" r="1.8" fill="#fff" opacity="0.80"/><circle cx="816" cy="71" r="1" fill="#fff" opacity="0.68"/><circle cx="1495" cy="378" r="1.4" fill="#fff" opacity="0.82"/><circle cx="838" cy="24" r="1.8" fill="#fff" opacity="0.69"/><circle cx="382" cy="13" r="1" fill="#fff" opacity="0.73"/><circle cx="605" cy="77" r="1" fill="#fff" opacity="0.54"/><circle cx="1331" cy="126" r="2.4" fill="#fff" opacity="0.48"/><circle cx="41" cy="381" r="1" fill="#fff" opacity="0.44"/><circle cx="1550" cy="315" r="1.8" fill="#fff" opacity="0.42"/><circle cx="1584" cy="115" r="1" fill="#fff" opacity="0.56"/><circle cx="1715" cy="396" r="2.4" fill="#fff" opacity="0.69"/><circle cx="1745" cy="417" r="1.4" fill="#fff" opacity="0.65"/><circle cx="1184" cy="225" r="1" fill="#fff" opacity="0.60"/><circle cx="647" cy="454" r="2.4" fill="#fff" opacity="0.46"/><circle cx="424" cy="347" r="2.4" fill="#fff" opacity="0.81"/><circle cx="649" cy="62" r="1.4" fill="#fff" opacity="0.38"/><circle cx="621" cy="274" r="1" fill="#fff" opacity="0.71"/><circle cx="764" cy="10" r="1.4" fill="#fff" opacity="0.54"/><circle cx="1476" cy="57" r="1.8" fill="#fff" opacity="0.69"/><circle cx="1776" cy="412" r="1.8" fill="#fff" opacity="0.65"/><circle cx="936" cy="263" r="1" fill="#fff" opacity="0.35"/><circle cx="29" cy="338" r="2.4" fill="#fff" opacity="0.50"/><circle cx="1354" cy="421" r="1" fill="#fff" opacity="0.65"/><circle cx="219" cy="479" r="1.4" fill="#fff" opacity="0.38"/><circle cx="54" cy="119" r="1" fill="#fff" opacity="0.37"/><circle cx="662" cy="340" r="1.8" fill="#fff" opacity="0.65"/><circle cx="1852" cy="354" r="1.4" fill="#fff" opacity="0.66"/><circle cx="1863" cy="456" r="1.8" fill="#fff" opacity="0.77"/><circle cx="1122" cy="118" r="2.4" fill="#fff" opacity="0.84"/><circle cx="1504" cy="28" r="2.4" fill="#fff" opacity="0.67"/><circle cx="1450" cy="200" r="134.4" fill="url(#moonglow)"/><path d="M1464,161 A42 42 0 1 0 1464,239 A40 40 0 0 1 1464,161 Z" fill="#fbf1c2"/><polygon points="-20,738.8 0,735.5 20,733.0 40,731.2 60,730.0 80,729.3 100,728.8 120,728.3 140,727.7 160,726.6 180,725.2 200,723.4 220,721.3 240,719.0 260,716.8 280,714.8 300,713.4 320,712.6 340,712.7 360,713.7 380,715.5 400,718.0 420,721.1 440,724.4 460,727.6 480,730.5 500,732.9 520,734.4 540,735.1 560,734.9 580,733.9 600,732.2 620,730.2 640,727.9 660,725.7 680,723.9 700,722.6 720,721.9 740,721.9 760,722.4 780,723.4 800,724.7 820,726.0 840,727.1 860,727.9 880,728.3 900,728.1 920,727.5 940,726.5 960,725.4 980,724.3 1000,723.6 1020,723.5 1040,724.2 1060,725.8 1080,728.3 1100,731.8 1120,736.0 1140,740.9 1160,746.0 1180,751.1 1200,755.9 1220,760.1 1240,763.6 1260,766.2 1280,767.9 1300,768.7 1320,768.9 1340,768.6 1360,768.1 1380,767.5 1400,767.0 1420,766.9 1440,767.1 1460,767.7 1480,768.5 1500,769.4 1520,770.2 1540,770.6 1560,770.4 1580,769.6 1600,767.9 1620,765.4 1640,762.1 1660,758.2 1680,754.0 1700,749.6 1720,745.5 1740,741.8 1760,738.9 1780,736.8 1800,735.7 1820,735.5 1840,736.1 1860,737.3 1880,738.9 1900,740.6 1920,742.1 1940,743.3 1940,1080 -20,1080" fill="#3a2a6e"/><rect y="760" width="1920" height="320" fill="url(#water)"/><defs><linearGradient id="water" x1="0" y1="0" x2="0" y2="1"><stop offset="0" stop-color="#5a3a8a"/><stop offset="1" stop-color="#0e1040"/></linearGradient></defs><rect x="1440" y="784" width="20" height="4" rx="2" fill="#c9c0ff" opacity="0.30"/><rect x="1433" y="806" width="34" height="4" rx="2" fill="#c9c0ff" opacity="0.27"/><rect x="1426" y="828" width="48" height="4" rx="2" fill="#c9c0ff" opacity="0.24"/><rect x="1419" y="850" width="62" height="4" rx="2" fill="#c9c0ff" opacity="0.21"/><rect x="1412" y="872" width="76" height="4" rx="2" fill="#c9c0ff" opacity="0.18"/><rect x="1405" y="894" width="90" height="4" rx="2" fill="#c9c0ff" opacity="0.15"/><rect x="1398" y="916" width="104" height="4" rx="2" fill="#c9c0ff" opacity="0.12"/><rect x="1391" y="938" width="118" height="4" rx="2" fill="#c9c0ff" opacity="0.09"/><polygon points="-20,938.1 0,942.4 20,946.8 40,951.1 60,954.9 80,958.0 100,960.1 120,961.2 140,961.2 160,960.3 180,958.5 200,956.1 220,953.5 240,951.0 260,948.9 280,947.4 300,946.7 320,946.9 340,947.9 360,949.5 380,951.7 400,954.1 420,956.5 440,958.7 460,960.4 480,961.5 500,962.1 520,962.2 540,961.9 560,961.5 580,961.2 600,961.3 620,961.9 640,963.3 660,965.5 680,968.4 700,972.0 720,976.0 740,980.2 760,984.1 780,987.5 800,990.0 820,991.6 840,991.9 860,991.0 880,989.0 900,986.1 920,982.4 940,978.4 960,974.2 980,970.2 1000,966.6 1020,963.6 1040,961.1 1060,959.2 1080,957.7 1100,956.4 1120,955.2 1140,953.7 1160,951.8 1180,949.3 1200,946.2 1220,942.6 1240,938.5 1260,934.2 1280,929.9 1300,926.0 1320,922.7 1340,920.3 1360,919.0 1380,918.8 1400,919.8 1420,921.7 1440,924.4 1460,927.6 1480,930.9 1500,934.0 1520,936.7 1540,938.7 1560,939.9 1580,940.2 1600,939.8 1620,938.7 1640,937.2 1660,935.5 1680,934.0 1700,932.8 1720,932.1 1740,932.0 1760,932.6 1780,933.6 1800,934.9 1820,936.4 1840,937.7 1860,938.6 1880,938.9 1900,938.5 1920,937.4 1940,935.5 1940,1080 -20,1080" fill="#0f0c2a"/><g><rect x="247" y="740" width="26" height="240" fill="#080618"/><ellipse cx="260" cy="644" rx="192" ry="152" fill="#080618"/><ellipse cx="132" cy="724" rx="128" ry="96" fill="#080618"/><ellipse cx="396" cy="716" rx="128" ry="96" fill="#080618"/></g><circle cx="760" cy="670" r="70" fill="#ffcf5a" opacity="0.35" filter="url(#soft)"/><rect x="756" y="680" width="8" height="220" fill="#1b1a2e"/><rect x="746" y="638" width="28" height="42" rx="4" fill="#ffd66b"/><polygon points="740,638 780,638 760,614" fill="#1b1a2e"/><circle cx="1140" cy="716" r="56" fill="#ffcf5a" opacity="0.35" filter="url(#soft)"/><rect x="1137" y="724" width="6" height="176" fill="#1b1a2e"/><rect x="1129" y="690" width="22" height="34" rx="4" fill="#ffd66b"/><polygon points="1124,690 1156,690 1140,671" fill="#1b1a2e"/></svg>